<svg width="25" height="26" viewBox="0 0 25 26" fill="none" xmlns="http://www.w3.org/2000/svg">
<g id="Github">
<path id="Vector" d="M5 0.5H10V3H7.5V5.5H5V0.5ZM5 13H2.5V5.5H5V13ZM7.5 15.5H5V13H7.5V15.5ZM10 18V15.5H7.5V18H2.5V15.5H0V18H2.5V20.5H7.5V25.5H10V20.5H12.5V18H10ZM10 18V20.5H7.5V18H10ZM17.5 3V5.5H10V3H17.5ZM22.5 5.5H20V3H17.5V0.5H22.5V5.5ZM22.5 13V5.5H25V13H22.5ZM20 15.5V13H22.5V15.5H20ZM17.5 18V15.5H20V18H17.5ZM17.5 20.5H15V18H17.5V20.5ZM17.5 20.5H20V25.5H17.5V20.5Z" fill="#7D9AA1"/>
</g>
</svg>
